<svg xmlns="http://www.w3.org/2000/svg" xmlns:xlink="http://www.w3.org/1999/xlink" viewBox="0 0 16 10"><path d="M 15.492 4.779 C 15.464 4.71 15.423 4.647 15.372 4.59 L 11.883 0.982 C 11.666 0.758 11.314 0.758 11.097 0.982 C 10.879 1.207 10.879 1.569 11.097 1.799 L 13.637 4.422 L 1.021 4.422 C 0.714 4.422 0.465 4.681 0.465 4.998 C 0.465 5.314 0.714 5.573 1.021 5.573 L 13.637 5.573 L 11.097 8.202 C 10.879 8.427 10.879 8.789 11.097 9.013 C 11.205 9.128 11.348 9.186 11.49 9.186 C 11.632 9.186 11.775 9.128 11.883 9.013 L 15.372 5.406 C 15.423 5.355 15.464 5.291 15.492 5.222 C 15.52 5.153 15.535 5.078 15.535 4.998 C 15.535 4.923 15.52 4.848 15.492 4.779 Z" fill="rgb(255,255,255)"></path></svg>