<svg xmlns="http://www.w3.org/2000/svg" width="157" height="44" fill="none"><path fill="#fff" d="M74.195 23.675c0 .607-.035 1.248-.105 1.925H58.76c.117 1.89.758 3.372 1.925 4.445 1.19 1.05 2.625 1.575 4.305 1.575 1.377 0 2.52-.315 3.43-.945a5.155 5.155 0 0 0 1.96-2.59h3.43c-.513 1.843-1.54 3.348-3.08 4.515-1.54 1.143-3.453 1.715-5.74 1.715-1.82 0-3.453-.408-4.9-1.225-1.423-.817-2.543-1.972-3.36-3.465-.817-1.517-1.225-3.267-1.225-5.25s.397-3.722 1.19-5.215c.793-1.493 1.902-2.637 3.325-3.43 1.447-.817 3.103-1.225 4.97-1.225 1.82 0 3.43.397 4.83 1.19a8.093 8.093 0 0 1 3.22 3.29c.77 1.377 1.155 2.94 1.155 4.69zm-3.29-.665c0-1.213-.268-2.252-.805-3.115a5.066 5.066 0 0 0-2.205-1.995c-.91-.467-1.925-.7-3.045-.7-1.61 0-2.987.513-4.13 1.54-1.12 1.027-1.762 2.45-1.925 4.27h12.11zm14.284 8.05 5.95-16.24h3.395L87.01 34H83.3l-7.525-19.18h3.43l5.985 16.24zm20.494 3.255c-1.796 0-3.43-.408-4.9-1.225-1.446-.817-2.59-1.972-3.43-3.465-.816-1.517-1.225-3.267-1.225-5.25 0-1.96.42-3.687 1.26-5.18.864-1.517 2.03-2.672 3.5-3.465 1.47-.817 3.115-1.225 4.935-1.225 1.82 0 3.465.408 4.935 1.225 1.47.793 2.625 1.937 3.465 3.43.864 1.493 1.295 3.232 1.295 5.215 0 1.983-.443 3.733-1.33 5.25a9.004 9.004 0 0 1-3.535 3.465c-1.493.817-3.15 1.225-4.97 1.225zm0-2.8a6.722 6.722 0 0 0 3.22-.805c1.004-.537 1.809-1.342 2.415-2.415.63-1.073.945-2.38.945-3.92s-.303-2.847-.91-3.92c-.606-1.073-1.4-1.867-2.38-2.38a6.523 6.523 0 0 0-3.185-.805c-1.166 0-2.24.268-3.22.805-.956.513-1.726 1.307-2.31 2.38-.583 1.073-.875 2.38-.875 3.92 0 1.563.28 2.882.84 3.955.584 1.073 1.354 1.878 2.31 2.415.957.513 2.007.77 3.15.77zM130.066 34l-7.525-8.47V34h-3.185V8.1h3.185v15.225l7.385-8.505h4.445l-9.03 9.555L134.406 34h-4.34zm24.453-10.325c0 .607-.035 1.248-.105 1.925h-15.33c.116 1.89.758 3.372 1.925 4.445 1.19 1.05 2.625 1.575 4.305 1.575 1.376 0 2.52-.315 3.43-.945a5.16 5.16 0 0 0 1.96-2.59h3.43c-.514 1.843-1.54 3.348-3.08 4.515-1.54 1.143-3.454 1.715-5.74 1.715-1.82 0-3.454-.408-4.9-1.225-1.424-.817-2.544-1.972-3.36-3.465-.817-1.517-1.225-3.267-1.225-5.25s.396-3.722 1.19-5.215c.793-1.493 1.901-2.637 3.325-3.43 1.446-.817 3.103-1.225 4.97-1.225 1.82 0 3.43.397 4.83 1.19a8.095 8.095 0 0 1 3.22 3.29c.77 1.377 1.155 2.94 1.155 4.69zm-3.29-.665c0-1.213-.269-2.252-.805-3.115a5.07 5.07 0 0 0-2.205-1.995c-.91-.467-1.925-.7-3.045-.7-1.61 0-2.987.513-4.13 1.54-1.12 1.027-1.762 2.45-1.925 4.27h12.11z"/><circle cx="22" cy="22" r="22" fill="#fff"/><mask id="a" width="44" height="44" x="0" y="0" maskUnits="userSpaceOnUse" style="mask-type:alpha"><circle cx="22" cy="22" r="22" fill="#D9D9D9"/></mask><g mask="url(#a)"><path fill="#05090B" d="M38 20H26.82l7.9-7.9-2.82-2.82-7.9 7.9V6h-4v11.18l-7.9-7.9-2.82 2.82 7.9 7.9H6v4h11.18l-7.9 7.9 2.82 2.82 7.9-7.9V38h4V26.82l7.9 7.9 2.82-2.82-7.9-7.9H38v-4z"/></g></svg>